<svg width="33" height="24" viewBox="0 0 33 24" fill="none" xmlns="http://www.w3.org/2000/svg">
<path d="M15.4393 8.84795C15.0417 8.45024 15.0417 7.80548 15.4393 7.40777C15.8371 7.01006 16.4819 7.01006 16.8795 7.40777L20.24 10.7682L23.6004 7.40777C23.998 7.01006 24.6428 7.01006 25.0406 7.40777C25.4382 7.8054 25.4382 8.45024 25.0406 8.84795L21.68 12.2083L25.0406 15.5688C25.4382 15.9664 25.4382 16.6112 25.0406 17.0088C24.6428 17.4066 23.998 17.4066 23.6004 17.0088L20.24 13.6485L16.8795 17.0088C16.4819 17.4066 15.8371 17.4066 15.4395 17.0088C15.0417 16.6111 15.0417 15.9664 15.4395 15.5687L18.7999 12.2084L15.4393 8.84795Z" fill="black"/>
<path fill-rule="evenodd" clip-rule="evenodd" d="M11.2396 1.86004L0.891357 12.2083L11.2396 22.5566C12.0036 23.3205 13.0396 23.7496 14.12 23.7496H28.0474C30.2971 23.7496 32.1208 21.9259 32.1208 19.6762V4.7404C32.1208 2.49071 30.2971 0.666992 28.0474 0.666992H14.12C13.0396 0.666992 12.0036 1.09619 11.2396 1.86004ZM28.0474 21.9845H14.12C13.5077 21.9845 12.9206 21.7413 12.4877 21.3084L3.38768 12.2083L12.4877 3.1082C12.9206 2.67535 13.5077 2.43212 14.12 2.43212H28.0474C29.3222 2.43212 30.3556 3.46555 30.3556 4.7404V19.6762C30.3556 20.9511 29.3222 21.9845 28.0474 21.9845Z" fill="black"/>
</svg>
