<svg width="12" height="12" viewBox="0 0 12 12" fill="none" xmlns="http://www.w3.org/2000/svg">
<g clip-path="url(#clip0_176_7445)">
<path d="M2.14569 11.4732L2.1457 11.4731L6.24824 7.3706L10.3508 11.4731C10.5223 11.6447 10.7479 11.7309 10.9729 11.7309C11.198 11.7309 11.4236 11.6446 11.5951 11.4732L11.5951 11.4731C11.939 11.1292 11.939 10.5728 11.5951 10.2288L7.49257 6.12629L11.5951 2.02375C11.9391 1.67981 11.9391 1.12339 11.5951 0.779444C11.2512 0.435498 10.6947 0.435498 10.3508 0.779443L6.24826 4.88198L2.1457 0.779444L1.97731 0.94784L2.1457 0.779443C1.80176 0.435498 1.24534 0.435498 0.901392 0.779444C0.557446 1.12339 0.557446 1.67981 0.901392 2.02375L5.00393 6.12629L0.901392 10.2288C0.557446 10.5728 0.557446 11.1292 0.901392 11.4731C1.0729 11.6447 1.29854 11.7309 1.52355 11.7309C1.74858 11.7309 1.9742 11.6446 2.14569 11.4732Z" fill="#000088" stroke="#000088" stroke-width="0.5"/>
</g>
<defs>
<clipPath id="clip0_176_7445">
<rect width="10.7096" height="10.7096" fill="white" transform="translate(0.893433 0.771484)"/>
</clipPath>
</defs>
</svg>
