<svg width="26" height="26" viewBox="0 0 26 26" fill="none" xmlns="http://www.w3.org/2000/svg">
<g clip-path="url(#clip0_110_1672)">
<path d="M19.4422 11.7725C19.9707 11.7725 20.3992 11.344 20.3992 10.8154C20.3992 10.2869 19.9707 9.8584 19.4422 9.8584C18.9136 9.8584 18.4851 10.2869 18.4851 10.8154C18.4851 11.344 18.9136 11.7725 19.4422 11.7725Z" fill="#0A60E0"/>
<path d="M21.6434 2.6807H20.3992V1.72365C20.3992 1.19507 19.9707 0.766602 19.4421 0.766602C18.9136 0.766602 18.4851 1.19507 18.4851 1.72365V2.6807H14.1305V1.72365C14.1305 1.19507 13.7021 0.766602 13.1735 0.766602C12.6449 0.766602 12.2164 1.19507 12.2164 1.72365V2.6807H7.90972V1.72365C7.90972 1.19507 7.48125 0.766602 6.95268 0.766602C6.4241 0.766602 5.99563 1.19507 5.99563 1.72365V2.6807H4.79932C2.68846 2.6807 0.97113 4.39802 0.97113 6.50889V21.4388C0.97113 23.5497 2.68846 25.267 4.79932 25.267H12.1207C12.6493 25.267 13.0778 24.8385 13.0778 24.31C13.0778 23.7814 12.6493 23.3529 12.1207 23.3529H4.79932C3.74389 23.3529 2.88522 22.4943 2.88522 21.4388V6.50889C2.88522 5.45345 3.74389 4.59479 4.79932 4.59479H5.99563V5.55184C5.99563 6.08042 6.4241 6.50889 6.95268 6.50889C7.48125 6.50889 7.90972 6.08042 7.90972 5.55184V4.59479H12.2164V5.55184C12.2164 6.08042 12.6449 6.50889 13.1735 6.50889C13.7021 6.50889 14.1305 6.08042 14.1305 5.55184V4.59479H18.4851V5.55184C18.4851 6.08042 18.9136 6.50889 19.4421 6.50889C19.9707 6.50889 20.3992 6.08042 20.3992 5.55184V4.59479H21.6434C22.6988 4.59479 23.5574 5.45345 23.5574 6.50889V11.9641C23.5574 12.4926 23.9859 12.9211 24.5145 12.9211C25.0431 12.9211 25.4715 12.4926 25.4715 11.9641V6.50889C25.4715 4.39802 23.7542 2.6807 21.6434 2.6807Z" fill="#0A60E0"/>
<path d="M19.6814 13.6865C16.4887 13.6865 13.8913 16.2839 13.8913 19.4767C13.8913 22.6694 16.4887 25.2668 19.6814 25.2668C22.8741 25.2668 25.4716 22.6694 25.4716 19.4767C25.4716 16.2839 22.8741 13.6865 19.6814 13.6865ZM19.6814 23.3527C17.5442 23.3527 15.8054 21.6139 15.8054 19.4767C15.8054 17.3394 17.5442 15.6006 19.6814 15.6006C21.8187 15.6006 23.5575 17.3394 23.5575 19.4767C23.5575 21.6139 21.8187 23.3527 19.6814 23.3527Z" fill="#0A60E0"/>
<path d="M21.0691 18.5201H20.6385V17.5152C20.6385 16.9866 20.21 16.5581 19.6814 16.5581C19.1528 16.5581 18.7244 16.9866 18.7244 17.5152V19.4771C18.7244 20.0057 19.1528 20.4341 19.6814 20.4341H21.0691C21.5977 20.4341 22.0262 20.0057 22.0262 19.4771C22.0262 18.9485 21.5977 18.5201 21.0691 18.5201Z" fill="#0A60E0"/>
<path d="M15.279 11.7725C15.8076 11.7725 16.2361 11.344 16.2361 10.8154C16.2361 10.2869 15.8076 9.8584 15.279 9.8584C14.7504 9.8584 14.322 10.2869 14.322 10.8154C14.322 11.344 14.7504 11.7725 15.279 11.7725Z" fill="#0A60E0"/>
<path d="M11.1159 15.9356C11.6444 15.9356 12.0729 15.5071 12.0729 14.9785C12.0729 14.45 11.6444 14.0215 11.1159 14.0215C10.5873 14.0215 10.1588 14.45 10.1588 14.9785C10.1588 15.5071 10.5873 15.9356 11.1159 15.9356Z" fill="#0A60E0"/>
<path d="M6.95265 11.7725C7.48122 11.7725 7.9097 11.344 7.9097 10.8154C7.9097 10.2869 7.48122 9.8584 6.95265 9.8584C6.42409 9.8584 5.99561 10.2869 5.99561 10.8154C5.99561 11.344 6.42409 11.7725 6.95265 11.7725Z" fill="#0A60E0"/>
<path d="M6.95265 15.9356C7.48122 15.9356 7.9097 15.5071 7.9097 14.9785C7.9097 14.45 7.48122 14.0215 6.95265 14.0215C6.42409 14.0215 5.99561 14.45 5.99561 14.9785C5.99561 15.5071 6.42409 15.9356 6.95265 15.9356Z" fill="#0A60E0"/>
<path d="M6.95265 20.0992C7.48122 20.0992 7.9097 19.6707 7.9097 19.1421C7.9097 18.6135 7.48122 18.1851 6.95265 18.1851C6.42409 18.1851 5.99561 18.6135 5.99561 19.1421C5.99561 19.6707 6.42409 20.0992 6.95265 20.0992Z" fill="#0A60E0"/>
<path d="M11.1159 20.0992C11.6444 20.0992 12.0729 19.6707 12.0729 19.1421C12.0729 18.6135 11.6444 18.1851 11.1159 18.1851C10.5873 18.1851 10.1588 18.6135 10.1588 19.1421C10.1588 19.6707 10.5873 20.0992 11.1159 20.0992Z" fill="#0A60E0"/>
<path d="M11.1159 11.7725C11.6444 11.7725 12.0729 11.344 12.0729 10.8154C12.0729 10.2869 11.6444 9.8584 11.1159 9.8584C10.5873 9.8584 10.1588 10.2869 10.1588 10.8154C10.1588 11.344 10.5873 11.7725 11.1159 11.7725Z" fill="#0A60E0"/>
</g>
<defs>
<clipPath id="clip0_110_1672">
<rect width="24.5004" height="24.5004" fill="white" transform="translate(0.97113 0.766602)"/>
</clipPath>
</defs>
</svg>
