<svg width="25" height="26" viewBox="0 0 25 26" fill="none" xmlns="http://www.w3.org/2000/svg">
<g clip-path="url(#clip0_119_14942)">
<path d="M17.5749 19.5247V21.4388C17.5749 23.5497 15.8577 25.267 13.7467 25.267H4.12842C2.0175 25.267 0.300232 23.5497 0.300232 21.4388V4.59479C0.300232 2.48387 2.0175 0.766602 4.12842 0.766602H13.7467C15.8577 0.766602 17.5749 2.48387 17.5749 4.59479V6.50889C17.5749 7.0375 17.1465 7.46593 16.6179 7.46593C16.0893 7.46593 15.6608 7.0375 15.6608 6.50889V4.59479C15.6608 3.53942 14.8021 2.6807 13.7467 2.6807H4.12842C3.07305 2.6807 2.21433 3.53942 2.21433 4.59479V21.4388C2.21433 22.4942 3.07305 23.3529 4.12842 23.3529H13.7467C14.8021 23.3529 15.6608 22.4942 15.6608 21.4388V19.5247C15.6608 18.9961 16.0893 18.5677 16.6179 18.5677C17.1465 18.5677 17.5749 18.9961 17.5749 19.5247ZM24.0999 11.3728L21.9568 9.22974C21.5829 8.85589 20.9769 8.85589 20.6033 9.22974C20.2294 9.6034 20.2294 10.2094 20.6033 10.5831L22.1276 12.1076H10.6363C10.1077 12.1076 9.6793 12.536 9.6793 13.0647C9.6793 13.5933 10.1077 14.0217 10.6363 14.0217H22.1276L20.6033 15.5463C20.2294 15.9199 20.2294 16.5259 20.6033 16.8996C20.7902 17.0865 21.0351 17.18 21.2799 17.18C21.525 17.18 21.7699 17.0865 21.9568 16.8996L24.0999 14.7565C25.0328 13.8236 25.0328 12.3058 24.0999 11.3728Z" fill="#0A60E0"/>
</g>
<defs>
<clipPath id="clip0_119_14942">
<rect width="24.5004" height="24.5004" fill="white" transform="translate(0.25238 0.766602)"/>
</clipPath>
</defs>
</svg>
