<svg width="21" height="21" viewBox="0 0 21 21" fill="none" xmlns="http://www.w3.org/2000/svg">
<g clip-path="url(#clip0_119_14917)">
<path d="M15.0681 20.7207H5.49763C3.29881 20.7207 1.50993 18.9318 1.50993 16.733V4.29141C1.50993 2.09259 3.29881 0.303711 5.49763 0.303711H13.7467C14.8119 0.303711 15.8132 0.718511 16.5664 1.47171L17.8878 2.79311C18.641 3.54631 19.0558 4.5477 19.0558 5.61285V5.88649C19.0558 6.32697 18.6988 6.68403 18.2583 6.68403H15.0681C13.7489 6.68403 12.6755 5.6107 12.6755 4.29141V1.89879H5.49763C4.17834 1.89879 3.10501 2.97212 3.10501 4.29141V16.733C3.10501 18.0523 4.17834 19.1256 5.49763 19.1256H15.0681C16.3874 19.1256 17.4607 18.0523 17.4607 16.733V9.07664C17.4607 8.63616 17.8178 8.27911 18.2583 8.27911C18.6987 8.27911 19.0558 8.63616 19.0558 9.07664V16.733C19.0558 18.9318 17.2669 20.7207 15.0681 20.7207ZM14.2706 1.95597V4.29141C14.2706 4.73117 14.6283 5.08895 15.0681 5.08895H17.4035C17.306 4.6499 17.0857 4.24675 16.7599 3.92099L15.4386 2.59959C15.1128 2.27383 14.7096 2.05355 14.2706 1.95597Z" fill="#0A60E0"/>
<path d="M15.0681 14.3406H14.2706V9.07684C14.2706 8.63636 13.9135 8.2793 13.473 8.2793C13.0325 8.2793 12.6755 8.63636 12.6755 9.07684V14.3406H11.0804V10.6719C11.0804 10.2314 10.7233 9.87438 10.2829 9.87438C9.84238 9.87438 9.48533 10.2314 9.48533 10.6719V14.3406H7.89025V12.267C7.89025 11.8265 7.53319 11.4695 7.09271 11.4695C6.65223 11.4695 6.29517 11.8265 6.29517 12.267V14.3406H5.49763C5.05715 14.3406 4.70009 14.6977 4.70009 15.1381C4.70009 15.5786 5.05715 15.9357 5.49763 15.9357H15.0681C15.5086 15.9357 15.8656 15.5786 15.8656 15.1381C15.8656 14.6977 15.5086 14.3406 15.0681 14.3406Z" fill="#0A60E0"/>
<path d="M8.68779 6.68395H5.49763C5.05715 6.68395 4.70009 6.32689 4.70009 5.88641C4.70009 5.44593 5.05715 5.08887 5.49763 5.08887H8.68779C9.12827 5.08887 9.48533 5.44593 9.48533 5.88641C9.48533 6.32689 9.12827 6.68395 8.68779 6.68395Z" fill="#0A60E0"/>
</g>
<defs>
<clipPath id="clip0_119_14917">
<rect width="20.417" height="20.417" fill="white" transform="translate(0.0743561 0.303711)"/>
</clipPath>
</defs>
</svg>
