<svg width="26" height="26" viewBox="0 0 26 26" fill="none" xmlns="http://www.w3.org/2000/svg">
<path d="M13.1588 1.36279C6.82508 1.36279 1.67419 6.51368 1.67419 12.8474C1.67419 19.181 6.82508 24.3319 13.1588 24.3319C19.4924 24.3319 24.6433 19.181 24.6433 12.8474C24.6433 6.51368 19.4924 1.36279 13.1588 1.36279ZM13.1588 2.89407C18.6649 2.89407 23.118 7.34124 23.118 12.8474C23.118 18.3535 18.6649 22.8066 13.1588 22.8066C7.65264 22.8066 3.20547 18.3535 3.20547 12.8474C3.20547 7.34124 7.65264 2.89407 13.1588 2.89407ZM13.1483 6.72674C12.946 6.73031 12.7534 6.81377 12.6124 6.95891C12.4715 7.10405 12.3937 7.29906 12.3961 7.50135V8.14586C11.1599 8.37778 10.1022 9.17384 10.1022 10.5534C10.1022 11.5105 10.5336 12.2845 11.1131 12.7352C11.6925 13.1859 12.3468 13.3857 12.921 13.5771C13.4952 13.7685 13.9909 13.9515 14.2728 14.1708C14.5547 14.39 14.69 14.5745 14.69 15.1488C14.69 16.4248 11.6335 16.4248 11.6335 15.1488C11.6357 15.0468 11.6176 14.9454 11.5801 14.8505C11.5427 14.7556 11.4866 14.6692 11.4153 14.5963C11.344 14.5234 11.2588 14.4654 11.1648 14.4259C11.0708 14.3863 10.9698 14.3659 10.8678 14.3659C10.7658 14.3659 10.6649 14.3863 10.5708 14.4259C10.4768 14.4654 10.3917 14.5234 10.3203 14.5963C10.249 14.6692 10.193 14.7556 10.1555 14.8505C10.1181 14.9454 10.0999 15.0468 10.1022 15.1488C10.1022 16.5273 11.1608 17.3248 12.3961 17.5578V18.1993C12.3939 18.3013 12.412 18.4027 12.4494 18.4976C12.4869 18.5925 12.5429 18.6789 12.6143 18.7518C12.6856 18.8247 12.7707 18.8827 12.8648 18.9222C12.9588 18.9618 13.0598 18.9822 13.1618 18.9822C13.2638 18.9822 13.3647 18.9618 13.4587 18.9222C13.5528 18.8827 13.6379 18.8247 13.7092 18.7518C13.7806 18.6789 13.8366 18.5925 13.8741 18.4976C13.9115 18.4027 13.9297 18.3013 13.9274 18.1993V17.5578C15.1629 17.325 16.2228 16.5275 16.2228 15.1488C16.2228 14.1917 15.7899 13.4177 15.2104 12.967C14.631 12.5163 13.9767 12.315 13.4025 12.1236C12.8283 11.9322 12.3326 11.7507 12.0507 11.5314C11.7688 11.3122 11.6335 11.1277 11.6335 10.5534C11.6335 9.27738 14.69 9.27738 14.69 10.5534C14.69 10.7567 14.7708 10.9516 14.9145 11.0954C15.0582 11.2391 15.2532 11.3198 15.4564 11.3198C15.6597 11.3198 15.8546 11.2391 15.9983 11.0954C16.1421 10.9516 16.2228 10.7567 16.2228 10.5534C16.2228 9.17591 15.1625 8.38064 13.9274 8.14736V7.50135C13.9286 7.39892 13.9092 7.29728 13.8705 7.20246C13.8317 7.10764 13.7743 7.02157 13.7016 6.94934C13.629 6.87711 13.5426 6.82019 13.4475 6.78196C13.3525 6.74372 13.2507 6.72495 13.1483 6.72674Z" fill="#0E60FF"/>
</svg>
