<svg width="26" height="26" viewBox="0 0 26 26" fill="none" xmlns="http://www.w3.org/2000/svg">
<g clip-path="url(#clip0_110_1650)">
<path d="M12.8669 8.39258C10.4106 8.39258 8.41223 10.3909 8.41223 12.8472C8.41223 15.3035 10.4106 17.3018 12.8669 17.3018C15.3231 17.3018 17.3215 15.3035 17.3215 12.8472C17.3215 10.3909 15.3231 8.39258 12.8669 8.39258ZM12.8669 15.0745C11.6387 15.0745 10.6395 14.0753 10.6395 12.8472C10.6395 11.6191 11.6387 10.6199 12.8669 10.6199C14.095 10.6199 15.0942 11.6191 15.0942 12.8472C15.0942 14.0753 14.095 15.0745 12.8669 15.0745Z" fill="#0A60E0"/>
<path d="M24.3602 15.6502L21.761 13.366C21.771 13.1929 21.7761 13.0197 21.7761 12.8474C21.7761 12.675 21.771 12.5018 21.761 12.3287L24.36 10.0445C24.7588 9.6941 24.8547 9.11091 24.5893 8.6512L22.362 4.79335C22.0966 4.33363 21.5435 4.12508 21.0407 4.29524L17.7634 5.404C17.4738 5.21305 17.1735 5.03931 16.8644 4.88385L16.1861 1.4924C16.0821 0.971876 15.625 0.597168 15.0941 0.597168H10.6395C10.1087 0.597168 9.65156 0.971876 9.54747 1.4924L8.86918 4.88385C8.56011 5.03931 8.25987 5.21312 7.97024 5.404L4.69275 4.29524C4.19013 4.12523 3.63694 4.33363 3.37144 4.79335L1.14413 8.6512C0.878709 9.11091 0.974632 9.6941 1.37339 10.0445L3.97252 12.3287C3.96257 12.5015 3.95759 12.6748 3.95759 12.8474C3.95759 13.02 3.96257 13.1933 3.97259 13.366L1.37347 15.6502C0.974706 16.0006 0.878784 16.5838 1.1442 17.0436L3.37151 20.9013C3.63701 21.361 4.19005 21.5695 4.69283 21.3994L7.97017 20.2907C8.25979 20.4816 8.56011 20.6554 8.86918 20.8108L9.54747 24.2023C9.65156 24.7229 10.1087 25.0976 10.6395 25.0976H15.0941C15.625 25.0976 16.0821 24.7229 16.1861 24.2023L16.8644 20.8109C17.1735 20.6554 17.4737 20.4816 17.7634 20.2907L21.0408 21.3995C21.5436 21.5694 22.0967 21.3612 22.3621 20.9014L24.5894 17.0436C24.855 16.5838 24.759 16.0006 24.3602 15.6502ZM20.8898 18.997L17.9403 17.9992C17.5898 17.8807 17.2034 17.9439 16.909 18.1678C16.4593 18.5101 15.9691 18.7937 15.4522 19.0108C15.1115 19.1539 14.8639 19.4567 14.7915 19.8191L14.1812 22.8703H11.5525L10.9423 19.8191C10.8698 19.4568 10.6222 19.1539 10.2815 19.0108C9.76434 18.7935 9.27426 18.51 8.82479 18.1679C8.53041 17.9438 8.14405 17.8806 7.79339 17.9991L4.84384 18.997L3.52951 16.7205L5.86766 14.6657C6.14504 14.4219 6.28357 14.0565 6.23747 13.6902C6.20257 13.4126 6.1849 13.1291 6.1849 12.8474C6.1849 12.5657 6.20257 12.2822 6.23754 12.0046C6.28365 11.6382 6.14511 11.2728 5.86773 11.029L3.52951 8.97416L4.84384 6.69762L7.79347 7.69546C8.14397 7.81395 8.53026 7.75077 8.82471 7.52685C9.27441 7.18466 9.76456 6.90105 10.2815 6.68389C10.6222 6.54074 10.8698 6.23798 10.9423 5.87552L11.5525 2.82448H14.1812L14.7914 5.8756C14.8638 6.23798 15.1114 6.54082 15.4521 6.68396C15.9691 6.90112 16.4593 7.18473 16.9089 7.52692C17.2033 7.75092 17.5897 7.81417 17.9402 7.6956L20.8896 6.69784L22.2039 8.9743L19.8659 11.0291C19.5886 11.2728 19.4501 11.6379 19.496 12.0041C19.531 12.2831 19.5488 12.5669 19.5488 12.8474C19.5488 13.128 19.531 13.4118 19.496 13.6908C19.4501 14.057 19.5887 14.4222 19.8659 14.6658L22.2042 16.7207L20.8898 18.997Z" fill="#0A60E0"/>
</g>
<defs>
<clipPath id="clip0_110_1650">
<rect width="24.5004" height="24.5004" fill="white" transform="translate(0.616638 0.597168)"/>
</clipPath>
</defs>
</svg>
