<svg width="22" height="22" viewBox="0 0 22 22" fill="none" xmlns="http://www.w3.org/2000/svg">
<g clip-path="url(#clip0_110_1665)">
<path d="M5.98725 6.14153C6.67792 5.59322 7.12207 4.74719 7.12207 3.79888C7.12207 2.14977 5.78041 0.808105 4.1313 0.808105C2.48219 0.808105 1.14053 2.14977 1.14053 3.79888C1.14053 4.74719 1.58472 5.59322 2.27534 6.14153C1.34645 6.74674 0.730591 7.79391 0.730591 8.98288V14.6665H1.92662V21.2251H6.32445V14.6665H7.53201V8.98288C7.53205 7.79391 6.91619 6.74674 5.98725 6.14153ZM4.1313 2.00441C5.12077 2.00441 5.92576 2.80941 5.92576 3.79888C5.92576 4.78835 5.12077 5.59334 4.1313 5.59334C3.14183 5.59334 2.33684 4.78835 2.33684 3.79888C2.33684 2.80941 3.14183 2.00441 4.1313 2.00441ZM6.33574 13.4702H5.12818V20.0288H3.12293V13.4702H1.9269V8.98288C1.9269 7.77354 2.91078 6.78965 4.12013 6.78965H4.1425C5.35185 6.78965 6.33574 7.77354 6.33574 8.98288V13.4702Z" fill="#0A60E0"/>
<path d="M19.6028 6.14153C20.2934 5.59322 20.7376 4.74719 20.7376 3.79888C20.7376 2.14977 19.3959 0.808105 17.7468 0.808105C16.0977 0.808105 14.756 2.14977 14.756 3.79888C14.756 4.74719 15.2002 5.59322 15.8909 6.14153C14.9619 6.7467 14.3461 7.79391 14.3461 8.98288V14.6665H15.5421V21.2251H19.9399V14.6665H21.1476V8.98288C21.1476 7.79391 20.5317 6.74674 19.6028 6.14153ZM17.7469 2.00441C18.7363 2.00441 19.5413 2.80941 19.5413 3.79888C19.5413 4.78835 18.7363 5.59334 17.7469 5.59334C16.7574 5.59334 15.9524 4.78835 15.9524 3.79888C15.9524 2.80941 16.7574 2.00441 17.7469 2.00441ZM19.9513 13.4702H18.7437V20.0288H16.7385V13.4702H15.5425V8.98288C15.5425 7.77354 16.5263 6.78965 17.7357 6.78965H17.758C18.9674 6.78965 19.9513 7.77354 19.9513 8.98288V13.4702Z" fill="#0A60E0"/>
<path d="M10.6903 2.83859L11.361 3.50932H8.11597V4.70563H11.361L10.6903 5.37636L11.5363 6.22223L13.651 4.10747L11.5363 1.99268L10.6903 2.83859Z" fill="#0A60E0"/>
<path d="M10.789 16.6569L9.94312 15.811L7.82837 17.9258L9.94312 20.0406L10.789 19.1947L10.1183 18.5239H13.3634V17.3276H10.1183L10.789 16.6569Z" fill="#0A60E0"/>
</g>
<defs>
<clipPath id="clip0_110_1665">
<rect width="20.417" height="20.417" fill="white" transform="translate(0.730591 0.808105)"/>
</clipPath>
</defs>
</svg>
