<svg width="21" height="21" viewBox="0 0 21 21" fill="none" xmlns="http://www.w3.org/2000/svg">
<g clip-path="url(#clip0_110_1658)">
<path d="M11.2155 11.751C14.3716 11.751 16.9392 9.1834 16.9392 6.02737C16.9392 2.87135 14.3716 0.303711 11.2155 0.303711C8.05945 0.303711 5.49185 2.87135 5.49185 6.02737C5.49185 9.1834 8.05949 11.751 11.2155 11.751ZM11.2155 1.50002C13.7119 1.50002 15.7429 3.53099 15.7429 6.02737C15.7429 8.52375 13.7119 10.5547 11.2156 10.5547C8.71917 10.5547 6.6882 8.52375 6.6882 6.02737C6.6882 3.53099 8.71914 1.50002 11.2155 1.50002Z" fill="#0A60E0"/>
<path d="M10.8952 6.62578H11.5359C11.736 6.62578 11.8988 6.78856 11.8988 6.9887C11.8988 7.1888 11.736 7.35158 11.5359 7.35158H10.5748C10.2445 7.35158 9.97669 7.6194 9.97669 7.94974C9.97669 8.28008 10.2445 8.54789 10.5748 8.54789H10.6174V8.5904C10.6174 8.92074 10.8852 9.18855 11.2155 9.18855C11.5459 9.18855 11.8137 8.92074 11.8137 8.5904V8.52261C12.5413 8.39114 13.0951 7.75362 13.0951 6.9887C13.0951 6.12891 12.3956 5.42947 11.5358 5.42947H10.8952C10.6951 5.42947 10.5323 5.26669 10.5323 5.06659C10.5323 4.86645 10.6951 4.70367 10.8952 4.70367H11.8563C12.1866 4.70367 12.4544 4.43586 12.4544 4.10552C12.4544 3.77518 12.1866 3.50736 11.8563 3.50736H11.8137V3.46485C11.8137 3.13451 11.5459 2.8667 11.2155 2.8667C10.8852 2.8667 10.6174 3.13451 10.6174 3.46485V3.53264C9.88984 3.66412 9.33603 4.30167 9.33603 5.06659C9.33603 5.92634 10.0355 6.62578 10.8952 6.62578Z" fill="#0A60E0"/>
<path d="M14.8565 13.4346L14.0493 14.2419C13.758 13.5804 13.0961 13.1174 12.3281 13.1174H8.14087C6.51006 13.1174 5.83558 14.4451 5.69162 15.0395H4.76608V14.3563C4.76608 14.0259 4.49827 13.7581 4.16792 13.7581H0.964488C0.634147 13.7581 0.366333 14.0259 0.366333 14.3563V20.1225C0.366333 20.4528 0.634147 20.7206 0.964488 20.7206H4.16792C4.49827 20.7206 4.76608 20.4528 4.76608 20.1225V19.4393H13.0144C13.7582 19.4393 14.4577 19.1495 14.984 18.6233L19.3268 14.2805C19.5604 14.0469 19.5602 13.6679 19.3268 13.4345C18.0943 12.2021 16.089 12.2021 14.8565 13.4346ZM3.56981 19.5243H1.56264V14.9544H3.56977L3.56981 19.5243ZM14.1382 17.7773C13.8379 18.0776 13.4387 18.2429 13.0144 18.2429H4.76612V16.2358H6.21884C6.54918 16.2358 6.81699 15.968 6.81699 15.6376C6.81699 14.906 7.40865 14.3137 8.14091 14.3137H12.3281C12.7049 14.3137 13.0114 14.6202 13.0114 14.9969C13.0114 15.5558 12.4959 15.6773 12.34 15.6801C12.3397 15.6801 12.3393 15.6801 12.3392 15.6801C12.3355 15.6801 12.3318 15.6801 12.3281 15.6801H10.1407C9.81036 15.6801 9.54254 15.948 9.54254 16.2783C9.54254 16.6086 9.81036 16.8764 10.1407 16.8764H12.3284C12.8299 16.8764 13.3017 16.6811 13.6571 16.326L15.7025 14.2804C16.3211 13.6619 17.2529 13.5428 17.9921 13.9233L14.1382 17.7773Z" fill="#0A60E0"/>
<path d="M19.1712 3.99957L20.4526 3.35887C20.7481 3.21116 20.8678 2.85187 20.7201 2.55638C20.5723 2.26089 20.2131 2.14114 19.9176 2.28885L18.6362 2.92955C18.3407 3.07725 18.2209 3.43655 18.3687 3.73203C18.517 4.02864 18.8768 4.14664 19.1712 3.99957Z" fill="#0A60E0"/>
<path d="M20.4526 8.6961L19.1712 8.0554C18.8758 7.90781 18.5164 8.02744 18.3687 8.32293C18.2209 8.61842 18.3407 8.97771 18.6362 9.12542L19.9176 9.76612C20.2127 9.91358 20.5721 9.79443 20.7201 9.49858C20.8678 9.2031 20.7481 8.8438 20.4526 8.6961Z" fill="#0A60E0"/>
<path d="M1.97849 3.35887L3.25989 3.99957C3.55422 4.14668 3.91407 4.02868 4.06238 3.73203C4.21012 3.43655 4.09037 3.07725 3.79488 2.92955L2.51348 2.28885C2.21795 2.14114 1.85874 2.26089 1.71099 2.55638C1.56325 2.85187 1.683 3.21116 1.97849 3.35887Z" fill="#0A60E0"/>
<path d="M2.51348 9.76612L3.79488 9.12542C4.09037 8.97771 4.21012 8.61842 4.06238 8.32293C3.91463 8.02744 3.55522 7.90781 3.25989 8.0554L1.97849 8.6961C1.683 8.8438 1.56325 9.2031 1.71099 9.49858C1.85894 9.79447 2.21839 9.91362 2.51348 9.76612Z" fill="#0A60E0"/>
</g>
<defs>
<clipPath id="clip0_110_1658">
<rect width="20.417" height="20.417" fill="white" transform="translate(0.366333 0.303711)"/>
</clipPath>
</defs>
</svg>
