<svg width="10" height="7" viewBox="0 0 10 7" fill="none" xmlns="http://www.w3.org/2000/svg">
<path d="M9.03488 0.83512C8.87343 0.665512 8.65503 0.570313 8.42738 0.570313C8.19973 0.570313 7.98133 0.665512 7.81988 0.83512L4.72637 4.05878L1.67594 0.83512C1.51449 0.665512 1.29609 0.570313 1.06844 0.570313C0.840795 0.570313 0.622395 0.665512 0.460945 0.83512C0.380179 0.919775 0.316073 1.02049 0.272325 1.13146C0.228578 1.24243 0.206055 1.36146 0.206055 1.48167C0.206055 1.60189 0.228578 1.72091 0.272325 1.83188C0.316073 1.94285 0.380179 2.04357 0.460945 2.12823L4.11456 5.98934C4.19467 6.07469 4.28997 6.14244 4.39498 6.18867C4.49999 6.2349 4.61262 6.2587 4.72637 6.2587C4.84013 6.2587 4.95275 6.2349 5.05776 6.18867C5.16277 6.14244 5.25807 6.07469 5.33818 5.98934L9.03488 2.12823C9.11565 2.04357 9.17975 1.94285 9.2235 1.83188C9.26725 1.72091 9.28977 1.60189 9.28977 1.48167C9.28977 1.36146 9.26725 1.24243 9.2235 1.13146C9.17975 1.02049 9.11565 0.919775 9.03488 0.83512Z" fill="#1D252D"/>
</svg>
