<svg width="26" height="27" viewBox="0 0 26 27" fill="none" xmlns="http://www.w3.org/2000/svg">
<path fill-rule="evenodd" clip-rule="evenodd" d="M12.9274 0.960938C5.96231 0.960938 0.307373 6.61587 0.307373 13.5809C0.307373 20.546 5.96231 26.2009 12.9274 26.2009C19.8924 26.2009 25.5474 20.546 25.5474 13.5809C25.5474 6.61587 19.8924 0.960938 12.9274 0.960938ZM12.9274 2.72187C18.9204 2.72187 23.7864 7.58791 23.7864 13.5809C23.7864 19.574 18.9204 24.44 12.9274 24.44C6.93434 24.44 2.0683 19.574 2.0683 13.5809C2.0683 7.58791 6.93434 2.72187 12.9274 2.72187Z" fill="#FFF"/>
<path fill-rule="evenodd" clip-rule="evenodd" d="M14.395 8.88535V18.277C14.395 18.763 14.7895 19.1574 15.2755 19.1574C15.7615 19.1574 16.1559 18.763 16.1559 18.277V8.88535C16.1559 8.39933 15.7615 8.00488 15.2755 8.00488C14.7895 8.00488 14.395 8.39933 14.395 8.88535Z" fill="#FFF"/>
<path fill-rule="evenodd" clip-rule="evenodd" d="M9.69897 8.88535V18.277C9.69897 18.763 10.0934 19.1574 10.5794 19.1574C11.0655 19.1574 11.4599 18.763 11.4599 18.277V8.88535C11.4599 8.39933 11.0655 8.00488 10.5794 8.00488C10.0934 8.00488 9.69897 8.39933 9.69897 8.88535Z" fill="#FFF"/>
</svg>
