<svg width="19" height="20" viewBox="0 0 19 20" fill="none" xmlns="http://www.w3.org/2000/svg">
<g clip-path="url(#clip0_177_8629)">
<path d="M9.47729 6.97096L12.054 9.6908L12.0663 9.54833C12.0663 8.11932 10.9661 6.95801 9.61226 6.95801L9.47729 6.97096Z" fill="black"/>
<path d="M9.6122 5.23134C11.8699 5.23134 13.7022 7.16546 13.7022 9.54855C13.7022 10.1055 13.5959 10.6365 13.4118 11.1243L15.8045 13.6499C17.0396 12.5619 18.013 11.1546 18.6143 9.54855C17.1951 5.75807 13.7063 3.07275 9.61224 3.07275C8.46703 3.07275 7.37094 3.2886 6.35254 3.67715L8.11941 5.53785C8.58153 5.3479 9.08459 5.23134 9.6122 5.23134Z" fill="black"/>
<path d="M1.43224 2.87823L3.29727 4.84687L3.66947 5.23975C2.31978 6.35359 1.25229 7.8344 0.614258 9.5483C2.0294 13.3388 5.52223 16.0241 9.61223 16.0241C10.8801 16.0241 12.0908 15.7651 13.1992 15.2945L13.5468 15.6615L15.9313 18.1827L16.9742 17.0861L2.47519 1.77734L1.43224 2.87823ZM5.95578 7.64875L7.21959 8.98277C7.18278 9.16842 7.15824 9.35403 7.15824 9.5483C7.15824 10.9773 8.25843 12.1386 9.61223 12.1386C9.79628 12.1386 9.97216 12.1127 10.1439 12.0739L11.4077 13.4079C10.8638 13.6928 10.2585 13.8655 9.61223 13.8655C7.35456 13.8655 5.52223 11.9314 5.52223 9.5483C5.52223 8.8662 5.68585 8.22724 5.95578 7.64875Z" fill="black"/>
</g>
<defs>
<clipPath id="clip0_177_8629">
<rect width="18" height="19" fill="white" transform="translate(0.614258 0.47998)"/>
</clipPath>
</defs>
</svg>
