<svg width="27" height="26" viewBox="0 0 27 26" fill="none" xmlns="http://www.w3.org/2000/svg">
<path d="M25.3306 10.2209L21.6562 3.60695C20.7187 1.92038 18.9812 0.87207 17.1219 0.87207H9.70062C7.84136 0.87207 6.10283 1.92038 5.16638 3.60695L1.4909 10.2209C0.540795 11.9328 0.540795 14.0603 1.4909 15.7745L5.16638 22.3884C6.10388 24.075 7.84031 25.1222 9.69957 25.1222H17.1209C18.9801 25.1222 20.7176 24.075 21.6551 22.3884L25.3295 15.7733C26.2796 14.0603 26.2796 11.9328 25.3295 10.2198L25.3306 10.2209ZM17.6248 14.1H14.4753V17.407C14.4753 18.0166 14.006 18.5093 13.4254 18.5093C12.8449 18.5093 12.3756 18.0166 12.3756 17.407V14.1H9.22609C8.64553 14.1 8.17626 13.6062 8.17626 12.9977C8.17626 12.3892 8.64553 11.8954 9.22609 11.8954H12.3756V8.58837C12.3756 7.97988 12.8449 7.48604 13.4254 7.48604C14.006 7.48604 14.4753 7.97988 14.4753 8.58837V11.8954H17.6248C18.2053 11.8954 18.6746 12.3892 18.6746 12.9977C18.6746 13.6062 18.2053 14.1 17.6248 14.1Z" fill="white"/>
</svg>
