<!-- icon.svg -->
<svg width="27" height="27" viewBox="0 0 27 27" fill="none" xmlns="http://www.w3.org/2000/svg">
<g clip-path="url(#clip0_965_154)">
<path d="M13.9275 1.42969C7.20614 1.42969 1.73999 6.89584 1.73999 13.6172C1.73999 20.3385 7.20614 25.8047 13.9275 25.8047C20.6488 25.8047 26.115 20.3385 26.115 13.6172C26.115 6.89584 20.6488 1.42969 13.9275 1.42969ZM13.9275 3.05469C19.7706 3.05469 24.4963 7.77406 24.4963 13.6172C24.4963 19.4603 19.7706 24.186 13.9275 24.186C8.08436 24.186 3.36499 19.4603 3.36499 13.6172C3.36499 7.77406 8.08436 3.05469 13.9275 3.05469ZM13.9164 7.12195C13.7017 7.12573 13.4973 7.2143 13.3477 7.36832C13.1982 7.52234 13.1156 7.72929 13.1182 7.94397V8.62793C11.8063 8.87404 10.6838 9.71882 10.6838 11.1829C10.6838 12.1985 11.1417 13.0199 11.7566 13.4982C12.3715 13.9764 13.0658 14.1885 13.6752 14.3916C14.2845 14.5947 14.8106 14.7889 15.1097 15.0216C15.4089 15.2543 15.5525 15.4501 15.5525 16.0594C15.5525 17.4136 12.3088 17.4136 12.3088 16.0594C12.3112 15.9512 12.292 15.8436 12.2522 15.7429C12.2125 15.6423 12.153 15.5505 12.0773 15.4732C12.0017 15.3958 11.9113 15.3343 11.8115 15.2923C11.7117 15.2503 11.6046 15.2287 11.4963 15.2287C11.3881 15.2287 11.2809 15.2503 11.1812 15.2923C11.0814 15.3343 10.991 15.3958 10.9153 15.4732C10.8396 15.5505 10.7802 15.6423 10.7404 15.7429C10.7007 15.8436 10.6814 15.9512 10.6838 16.0594C10.6838 17.5223 11.8073 18.3687 13.1182 18.616V19.2967C13.1158 19.405 13.135 19.5126 13.1748 19.6132C13.2145 19.7139 13.274 19.8056 13.3497 19.883C13.4253 19.9604 13.5157 20.0219 13.6155 20.0639C13.7153 20.1059 13.8224 20.1275 13.9307 20.1275C14.0389 20.1275 14.1461 20.1059 14.2458 20.0639C14.3456 20.0219 14.436 19.9604 14.5117 19.883C14.5874 19.8056 14.6468 19.7139 14.6866 19.6132C14.7263 19.5126 14.7456 19.405 14.7432 19.2967V18.616C16.0543 18.3689 17.1791 17.5225 17.1791 16.0594C17.1791 15.0438 16.7196 14.2224 16.1047 13.7441C15.4898 13.2659 14.7955 13.0522 14.1862 12.8491C13.5768 12.646 13.0507 12.4534 12.7516 12.2207C12.4524 11.988 12.3088 11.7922 12.3088 11.1829C12.3088 9.82869 15.5525 9.82869 15.5525 11.1829C15.5525 11.3986 15.6382 11.6054 15.7907 11.7579C15.9432 11.9105 16.1501 11.9962 16.3658 11.9962C16.5815 11.9962 16.7883 11.9105 16.9409 11.7579C17.0934 11.6054 17.1791 11.3986 17.1791 11.1829C17.1791 9.72102 16.0539 8.87708 14.7432 8.62952V7.94397C14.7444 7.83526 14.7239 7.7274 14.6827 7.62678C14.6416 7.52616 14.5807 7.43482 14.5036 7.35816C14.4265 7.28151 14.3348 7.22111 14.2339 7.18054C14.1331 7.13996 14.0251 7.12004 13.9164 7.12195Z" fill="#FFF"/>
</g>
<defs>
<clipPath id="clip0_965_154">
<rect width="26" height="26" fill="white" transform="translate(0.92749 0.617188)"/>
</clipPath>
</defs>
</svg>
