<svg width="26" height="26" viewBox="0 0 26 26" fill="none" xmlns="http://www.w3.org/2000/svg">
<path fill-rule="evenodd" clip-rule="evenodd" d="M25.383 15.4462V21.8936L19.7994 25.1171V18.6697L25.383 15.4462ZM13.3568 21.8936L18.9404 25.1172V18.6697L13.3568 15.4462V21.8936ZM0.471436 21.8936L6.05537 25.1172V18.6697L0.471436 15.4462V21.8936ZM12.9272 0.617188L7.47249 3.76636L12.9272 6.91581L18.382 3.76664L12.9272 0.617188ZM6.91438 25.1171L12.4979 21.8936L12.498 15.4462L6.91438 18.6697V25.1171ZM6.48466 11.4782L12.0683 14.7021L6.48466 17.9256L0.900778 14.7021L6.48466 11.4782ZM13.3569 13.9582L13.3569 7.65965L18.8116 4.5102L18.8117 10.8088L13.3569 13.9582ZM12.4979 7.65965V13.9582L7.0432 10.8087V4.51042L12.4979 7.65965ZM19.3701 11.4784L13.7865 14.7023L19.3701 17.9259L24.9536 14.7023L19.3701 11.4784Z" fill="#FFF"/>
</svg>
