<svg width="26" height="26" viewBox="0 0 26 26" fill="none" xmlns="http://www.w3.org/2000/svg">
<path d="M13.1235 0.617188C11.0392 0.624724 8.98987 1.15402 7.16257 2.15678C5.33528 3.15954 3.78813 4.60387 2.66227 6.358L2.10327 3.69611C2.0788 3.57958 2.03162 3.46902 1.96443 3.37074C1.89723 3.27245 1.81133 3.18836 1.71163 3.12327C1.61194 3.05818 1.5004 3.01336 1.38338 2.99138C1.26637 2.96939 1.14617 2.97067 1.02964 2.99514C0.913123 3.01961 0.802562 3.06679 0.704274 3.13399C0.605987 3.20119 0.521897 3.28709 0.456806 3.38678C0.391716 3.48648 0.346899 3.59802 0.324915 3.71503C0.302931 3.83205 0.304211 3.95225 0.32868 4.06877L1.41118 9.17073C1.41118 9.17073 1.41118 9.22396 1.41118 9.25946C1.43105 9.31717 1.45477 9.3735 1.48217 9.42804C1.50972 9.47313 1.54248 9.51482 1.57977 9.55226L1.70399 9.67649L1.7661 9.7386L1.89032 9.79183H1.93469C2.02627 9.82319 2.1219 9.84112 2.21862 9.84507H2.27186C2.31581 9.85368 2.36101 9.85368 2.40495 9.84507L7.60451 8.78032C7.83984 8.73207 8.04636 8.59233 8.17865 8.39181C8.31094 8.1913 8.35815 7.94645 8.30991 7.71112C8.26167 7.4758 8.12192 7.26927 7.92141 7.13699C7.7209 7.0047 7.47605 6.95748 7.24072 7.00572L3.87787 7.72443C5.15943 5.4808 7.21312 3.77974 9.65613 2.93833C12.0991 2.09691 14.7648 2.17256 17.1561 3.15117C19.5475 4.12979 21.5014 5.94458 22.6536 8.25728C23.8059 10.57 24.0779 13.2228 23.4189 15.7212C22.7599 18.2196 21.2148 20.3931 19.0718 21.8366C16.9288 23.2801 14.3339 23.895 11.771 23.5668C9.2081 23.2386 6.85196 21.9897 5.1418 20.0528C3.43164 18.1159 2.48415 15.6232 2.47594 13.0393C2.47594 12.804 2.38245 12.5783 2.21605 12.4119C2.04965 12.2455 1.82397 12.152 1.58864 12.152C1.35332 12.152 1.12763 12.2455 0.961228 12.4119C0.794827 12.5783 0.701345 12.804 0.701345 13.0393C0.701345 15.4962 1.42989 17.8979 2.79485 19.9407C4.15982 21.9835 6.09989 23.5757 8.36975 24.5159C10.6396 25.4561 13.1373 25.7021 15.5469 25.2228C17.9566 24.7435 20.17 23.5604 21.9073 21.8231C23.6446 20.0859 24.8276 17.8724 25.307 15.4628C25.7863 13.0531 25.5403 10.5554 24.6001 8.28559C23.6599 6.01574 22.0677 4.07566 20.0249 2.7107C17.9821 1.34573 15.5804 0.617187 13.1235 0.617188Z" fill="#FFF"/>
<path d="M17.5599 18.3628C17.7953 18.3628 18.0209 18.2693 18.1873 18.1029C18.3537 17.9365 18.4472 17.7108 18.4472 17.4755V12.1517C18.4514 12.1104 18.4514 12.0688 18.4472 12.0275C18.4516 11.9981 18.4516 11.9682 18.4472 11.9388L17.5599 8.38957C17.5113 8.1927 17.3968 8.0184 17.2354 7.89571C17.0739 7.77301 16.8753 7.70932 16.6726 7.71522H9.57426C9.37157 7.70932 9.17297 7.77301 9.01153 7.89571C8.85009 8.0184 8.73554 8.1927 8.68696 8.38957L7.79967 11.9388C7.79529 11.9682 7.79529 11.9981 7.79967 12.0275C7.79552 12.0688 7.79552 12.1104 7.79967 12.1517V17.4755C7.79967 17.7108 7.89315 17.9365 8.05955 18.1029C8.22595 18.2693 8.45164 18.3628 8.68696 18.3628H17.5599ZM16.6726 16.5882H9.57426V13.039H12.2361V13.9263C12.2361 14.1616 12.3296 14.3873 12.496 14.5537C12.6624 14.7201 12.8881 14.8136 13.1234 14.8136C13.3588 14.8136 13.5845 14.7201 13.7509 14.5537C13.9173 14.3873 14.0107 14.1616 14.0107 13.9263V13.039H16.6726V16.5882ZM16.4242 11.2644H14.0107V9.48981H15.9805L16.4242 11.2644ZM10.2664 9.48981H12.2361V11.2644H9.8227L10.2664 9.48981Z" fill="#FFF"/>
</svg>
