<svg width="26" height="26" viewBox="0 0 26 26" fill="none" xmlns="http://www.w3.org/2000/svg">
<path d="M25.4075 12.6167C25.4075 19.4981 19.8089 25.0967 12.9275 25.0967C6.04609 25.0967 0.44751 19.4981 0.44751 12.6167C0.44751 12.1859 0.79643 11.8367 1.22751 11.8367C1.65859 11.8367 2.00751 12.1859 2.00751 12.6167C2.00751 18.6381 6.90617 23.5367 12.9275 23.5367C18.9488 23.5367 23.8475 18.6381 23.8475 12.6167C23.8475 6.59538 18.9488 1.69672 12.9275 1.69672C10.0256 1.69672 7.33075 2.82486 5.30379 4.81672H8.24751C8.67859 4.81672 9.02751 5.1659 9.02751 5.59672C9.02751 6.02754 8.67859 6.37672 8.24751 6.37672H3.56751C3.13643 6.37672 2.78751 6.02754 2.78751 5.59672V0.916719C2.78751 0.485899 3.13643 0.136719 3.56751 0.136719C3.99859 0.136719 4.34751 0.485899 4.34751 0.916719V3.5773C6.64877 1.38082 9.67257 0.136719 12.9275 0.136719C19.8089 0.136719 25.4075 5.7353 25.4075 12.6167ZM13.7075 11.8367H12.1475C11.7172 11.8367 11.3675 11.4868 11.3675 11.0567C11.3675 10.6267 11.7172 10.2767 12.1475 10.2767H15.2675C15.6986 10.2767 16.0475 9.92754 16.0475 9.49672C16.0475 9.0659 15.6986 8.71672 15.2675 8.71672H13.7075V7.93672C13.7075 7.5059 13.3586 7.15672 12.9275 7.15672C12.4964 7.15672 12.1475 7.5059 12.1475 7.93672V8.71672C10.8571 8.71672 9.80751 9.76634 9.80751 11.0567C9.80751 12.3471 10.8571 13.3967 12.1475 13.3967H13.7075C14.1378 13.3967 14.4875 13.7467 14.4875 14.1767C14.4875 14.6068 14.1378 14.9567 13.7075 14.9567H10.5875C10.1564 14.9567 9.80751 15.3059 9.80751 15.7367C9.80751 16.1675 10.1564 16.5167 10.5875 16.5167H12.1475V17.2967C12.1475 17.7275 12.4964 18.0767 12.9275 18.0767C13.3586 18.0767 13.7075 17.7275 13.7075 17.2967V16.5167C14.9979 16.5167 16.0475 15.4671 16.0475 14.1767C16.0475 12.8863 14.9979 11.8367 13.7075 11.8367Z" fill="#FFF"/>
</svg>
