<svg width="22" height="22" viewBox="0 0 22 22" fill="none" xmlns="http://www.w3.org/2000/svg">
<g clip-path="url(#clip0_177_8487)">
<path d="M21.5277 10.613C21.4923 10.5422 20.642 8.86123 18.954 7.17319C14.3253 2.54435 7.90958 2.53811 3.2745 7.17319C1.58646 8.86123 0.736183 10.5422 0.700775 10.613C0.585419 10.8439 0.585419 11.1158 0.700775 11.3467C0.736183 11.4175 1.58646 13.0985 3.2745 14.7865C7.90334 19.4154 14.3189 19.4216 18.954 14.7865C20.642 13.0985 21.4923 11.4175 21.5277 11.3467C21.6431 11.1158 21.6431 10.8439 21.5277 10.613ZM17.7939 13.6264C13.8796 17.5407 8.52322 17.6836 4.46988 13.6615C3.40107 12.601 2.69756 11.5252 2.37376 10.979C2.69195 10.441 3.37945 9.38851 4.43464 8.33332C8.34009 4.42787 13.6973 4.26813 17.7588 8.29823C18.8277 9.35887 19.5313 10.435 19.8547 10.9806C19.5365 11.5186 18.849 12.5712 17.7939 13.6264ZM11.1142 6.93302C8.88274 6.93302 7.06732 8.74844 7.06732 10.9798C7.06732 13.2113 8.88274 15.0267 11.1142 15.0267C13.3458 15.0267 15.1612 13.2113 15.1612 10.9798C15.1612 8.74844 13.3458 6.93302 11.1142 6.93302ZM11.1142 13.3861C9.78749 13.3861 8.70795 12.3065 8.70795 10.9798C8.70795 9.65303 9.78749 8.57364 11.1142 8.57364C12.441 8.57364 13.5205 9.65303 13.5205 10.9798C13.5205 12.3067 12.441 13.3861 11.1142 13.3861Z" fill="black"/>
</g>
<defs>
<clipPath id="clip0_177_8487">
<rect width="21" height="21" fill="white" transform="translate(0.614258 0.5)"/>
</clipPath>
</defs>
</svg>
